<?xml version="1.0" encoding="UTF-8" standalone="no"?>
<!DOCTYPE svg PUBLIC "-//W3C//DTD SVG 1.1//EN"
 "http://www.w3.org/Graphics/SVG/1.1/DTD/svg11.dtd">
<!-- Generated by graphviz version 2.40.1 (20161225.0304)
 -->
<!-- Title: dependencies Pages: 1 -->
<svg width="1050pt" height="363pt"
 viewBox="0.00 0.00 1050.00 363.00" xmlns="http://www.w3.org/2000/svg" xmlns:xlink="http://www.w3.org/1999/xlink">
<g id="graph0" class="graph" transform="scale(1 1) rotate(0) translate(4 359)">
<title>dependencies</title>
<polygon fill="#ffffff" stroke="transparent" points="-4,4 -4,-359 1046,-359 1046,4 -4,4"/>
<text text-anchor="start" x="500.0091" y="-42.4" font-family="sans-serif" font-weight="bold" font-size="14.00" fill="#000000">Legend</text>
<polygon fill="#ffffb3" stroke="transparent" points="287,-10 287,-30 307,-30 307,-10 287,-10"/>
<text text-anchor="start" x="310.629" y="-15.4" font-family="sans-serif" font-size="14.00" fill="#000000"> &#160;Declarations</text>
<polygon fill="#8dd3c7" stroke="transparent" points="400,-10 400,-30 420,-30 420,-10 400,-10"/>
<text text-anchor="start" x="423.7251" y="-15.4" font-family="sans-serif" font-size="14.00" fill="#000000"> &#160;Module</text>
<polygon fill="#80b1d3" stroke="transparent" points="486,-10 486,-30 506,-30 506,-10 486,-10"/>
<text text-anchor="start" x="509.7812" y="-15.4" font-family="sans-serif" font-size="14.00" fill="#000000"> &#160;Bootstrap</text>
<polygon fill="#fdb462" stroke="transparent" points="583,-10 583,-30 603,-30 603,-10 583,-10"/>
<text text-anchor="start" x="606.6732" y="-15.4" font-family="sans-serif" font-size="14.00" fill="#000000"> &#160;Providers</text>
<polygon fill="#fb8072" stroke="transparent" points="679,-10 679,-30 699,-30 699,-10 679,-10"/>
<text text-anchor="start" x="702.7258" y="-15.4" font-family="sans-serif" font-size="14.00" fill="#000000"> &#160;Exports</text>
<g id="clust1" class="cluster">
<title>cluster_AppModule</title>
<polygon fill="none" stroke="#000000" stroke-dasharray="1,5" points="387,-146 387,-347 760,-347 760,-146 387,-146"/>
</g>
<g id="clust2" class="cluster">
<title>cluster_AppModule_declarations</title>
<polygon fill="none" stroke="#000000" points="630,-154 630,-206 752,-206 752,-154 630,-154"/>
</g>
<g id="clust4" class="cluster">
<title>cluster_AppModule_imports</title>
<polygon fill="none" stroke="#000000" points="395,-154 395,-206 622,-206 622,-154 395,-154"/>
</g>
<g id="clust6" class="cluster">
<title>cluster_AppModule_bootstrap</title>
<polygon fill="none" stroke="#000000" points="499,-287 499,-339 623,-339 623,-287 499,-287"/>
</g>
<g id="clust8" class="cluster">
<title>cluster_CoreModule</title>
<polygon fill="none" stroke="#000000" stroke-dasharray="1,5" points="8,-70 8,-138 882,-138 882,-70 8,-70"/>
</g>
<g id="clust9" class="cluster">
<title>cluster_CoreModule_declarations</title>
<polygon fill="none" stroke="#000000" points="180,-78 180,-130 738,-130 738,-78 180,-78"/>
</g>
<g id="clust14" class="cluster">
<title>cluster_CoreModule_imports</title>
<polygon fill="none" stroke="#000000" points="746,-78 746,-130 874,-130 874,-78 746,-78"/>
</g>
<g id="clust15" class="cluster">
<title>cluster_CoreModule_exports</title>
<polygon fill="none" stroke="#000000" points="16,-78 16,-130 172,-130 172,-78 16,-78"/>
</g>
<g id="clust18" class="cluster">
<title>cluster_SharedModule</title>
<polygon fill="none" stroke="#000000" stroke-dasharray="1,5" points="890,-70 890,-279 1034,-279 1034,-70 890,-70"/>
</g>
<g id="clust19" class="cluster">
<title>cluster_SharedModule_declarations</title>
<polygon fill="none" stroke="#000000" points="899,-78 899,-130 1023,-130 1023,-78 899,-78"/>
</g>
<g id="clust22" class="cluster">
<title>cluster_SharedModule_exports</title>
<polygon fill="none" stroke="#000000" points="898,-219 898,-271 1026,-271 1026,-219 898,-219"/>
</g>
<!-- AppComponent -->
<g id="node1" class="node">
<title>AppComponent</title>
<polygon fill="#ffffb3" stroke="#000000" points="743.9399,-198 638.0601,-198 638.0601,-162 743.9399,-162 743.9399,-198"/>
<text text-anchor="middle" x="691" y="-175.8" font-family="Times,serif" font-size="14.00" fill="#000000">AppComponent</text>
</g>
<!-- AppModule -->
<g id="node2" class="node">
<title>AppModule</title>
<polygon fill="#8dd3c7" stroke="#000000" points="602.6571,-263 599.6571,-267 578.6571,-267 575.6571,-263 519.3429,-263 519.3429,-227 602.6571,-227 602.6571,-263"/>
<text text-anchor="middle" x="561" y="-240.8" font-family="Times,serif" font-size="14.00" fill="#000000">AppModule</text>
</g>
<!-- AppComponent&#45;&gt;AppModule -->
<g id="edge1" class="edge">
<title>AppComponent&#45;&gt;AppModule</title>
<path fill="none" stroke="#000000" d="M691,-198.1061C691,-217.3391 691,-245 691,-245 691,-245 612.8484,-245 612.8484,-245"/>
<polygon fill="#000000" stroke="#000000" points="612.8484,-241.5001 602.8484,-245 612.8484,-248.5001 612.8484,-241.5001"/>
</g>
<!-- AppComponent  -->
<g id="node5" class="node">
<title>AppComponent </title>
<polygon fill="#80b1d3" stroke="#000000" points="615.439,-331 506.561,-331 506.561,-295 615.439,-295 615.439,-331"/>
<text text-anchor="middle" x="561" y="-308.8" font-family="Times,serif" font-size="14.00" fill="#000000">AppComponent </text>
</g>
<!-- AppModule&#45;&gt;AppComponent  -->
<g id="edge4" class="edge">
<title>AppModule&#45;&gt;AppComponent </title>
<path fill="none" stroke="#000000" stroke-dasharray="1,5" d="M561,-263.2228C561,-263.2228 561,-284.7269 561,-284.7269"/>
<polygon fill="#000000" stroke="#000000" points="557.5001,-284.7269 561,-294.7269 564.5001,-284.727 557.5001,-284.7269"/>
</g>
<!-- BrowserModule -->
<g id="node3" class="node">
<title>BrowserModule</title>
<polygon fill="#8dd3c7" stroke="#000000" points="614.4734,-198 611.4734,-202 590.4734,-202 587.4734,-198 507.5266,-198 507.5266,-162 614.4734,-162 614.4734,-198"/>
<text text-anchor="middle" x="561" y="-175.8" font-family="Times,serif" font-size="14.00" fill="#000000">BrowserModule</text>
</g>
<!-- BrowserModule&#45;&gt;AppModule -->
<g id="edge2" class="edge">
<title>BrowserModule&#45;&gt;AppModule</title>
<path fill="none" stroke="#000000" d="M561,-198.1061C561,-198.1061 561,-216.991 561,-216.991"/>
<polygon fill="#000000" stroke="#000000" points="557.5001,-216.9909 561,-226.991 564.5001,-216.991 557.5001,-216.9909"/>
</g>
<!-- CoreModule -->
<g id="node4" class="node">
<title>CoreModule</title>
<polygon fill="#8dd3c7" stroke="#000000" points="489.2619,-198 486.2619,-202 465.2619,-202 462.2619,-198 402.7381,-198 402.7381,-162 489.2619,-162 489.2619,-198"/>
<text text-anchor="middle" x="446" y="-175.8" font-family="Times,serif" font-size="14.00" fill="#000000">CoreModule</text>
</g>
<!-- CoreModule&#45;&gt;AppModule -->
<g id="edge3" class="edge">
<title>CoreModule&#45;&gt;AppModule</title>
<path fill="none" stroke="#000000" d="M446,-198.1061C446,-217.3391 446,-245 446,-245 446,-245 509.157,-245 509.157,-245"/>
<polygon fill="#000000" stroke="#000000" points="509.1571,-248.5001 519.157,-245 509.157,-241.5001 509.1571,-248.5001"/>
</g>
<!-- NavigatorComponent  -->
<g id="node11" class="node">
<title>NavigatorComponent </title>
<polygon fill="#fb8072" stroke="#000000" points="164.3101,-122 23.6899,-122 23.6899,-86 164.3101,-86 164.3101,-122"/>
<text text-anchor="middle" x="94" y="-99.8" font-family="Times,serif" font-size="14.00" fill="#000000">NavigatorComponent </text>
</g>
<!-- CoreModule&#45;&gt;NavigatorComponent  -->
<g id="edge10" class="edge">
<title>CoreModule&#45;&gt;NavigatorComponent </title>
<path fill="none" stroke="#000000" stroke-dasharray="5,2" d="M402.4848,-186C308.307,-186 94,-186 94,-186 94,-186 94,-132.1985 94,-132.1985"/>
<polygon fill="#000000" stroke="#000000" points="97.5001,-132.1984 94,-122.1985 90.5001,-132.1985 97.5001,-132.1984"/>
</g>
<!-- NavigatorComponent -->
<g id="node6" class="node">
<title>NavigatorComponent</title>
<polygon fill="#ffffb3" stroke="#000000" points="729.8104,-122 592.1896,-122 592.1896,-86 729.8104,-86 729.8104,-122"/>
<text text-anchor="middle" x="661" y="-99.8" font-family="Times,serif" font-size="14.00" fill="#000000">NavigatorComponent</text>
</g>
<!-- NavigatorComponent&#45;&gt;CoreModule -->
<g id="edge5" class="edge">
<title>NavigatorComponent&#45;&gt;CoreModule</title>
<path fill="none" stroke="#000000" d="M603.4159,-122.2434C603.4159,-129.4297 603.4159,-136 603.4159,-136 603.4159,-136 470.7546,-136 470.7546,-136 470.7546,-136 470.7546,-151.8495 470.7546,-151.8495"/>
<polygon fill="#000000" stroke="#000000" points="467.2546,-151.8494 470.7546,-161.8495 474.2546,-151.8495 467.2546,-151.8494"/>
</g>
<!-- HeaderComponent -->
<g id="node7" class="node">
<title>HeaderComponent</title>
<polygon fill="#ffffb3" stroke="#000000" points="573.7437,-122 452.2563,-122 452.2563,-86 573.7437,-86 573.7437,-122"/>
<text text-anchor="middle" x="513" y="-99.8" font-family="Times,serif" font-size="14.00" fill="#000000">HeaderComponent</text>
</g>
<!-- HeaderComponent&#45;&gt;CoreModule -->
<g id="edge6" class="edge">
<title>HeaderComponent&#45;&gt;CoreModule</title>
<path fill="none" stroke="#000000" d="M461.4414,-122.0109C461.4414,-122.0109 461.4414,-151.855 461.4414,-151.855"/>
<polygon fill="#000000" stroke="#000000" points="457.9415,-151.8549 461.4414,-161.855 464.9415,-151.855 457.9415,-151.8549"/>
</g>
<!-- MainComponent -->
<g id="node8" class="node">
<title>MainComponent</title>
<polygon fill="#ffffb3" stroke="#000000" points="434.3823,-122 323.6177,-122 323.6177,-86 434.3823,-86 434.3823,-122"/>
<text text-anchor="middle" x="379" y="-99.8" font-family="Times,serif" font-size="14.00" fill="#000000">MainComponent</text>
</g>
<!-- MainComponent&#45;&gt;CoreModule -->
<g id="edge7" class="edge">
<title>MainComponent&#45;&gt;CoreModule</title>
<path fill="none" stroke="#000000" d="M418.5302,-122.0109C418.5302,-122.0109 418.5302,-151.855 418.5302,-151.855"/>
<polygon fill="#000000" stroke="#000000" points="415.0302,-151.8549 418.5302,-161.855 422.0302,-151.855 415.0302,-151.8549"/>
</g>
<!-- FooterComponent -->
<g id="node9" class="node">
<title>FooterComponent</title>
<polygon fill="#ffffb3" stroke="#000000" points="305.8809,-122 188.1191,-122 188.1191,-86 305.8809,-86 305.8809,-122"/>
<text text-anchor="middle" x="247" y="-99.8" font-family="Times,serif" font-size="14.00" fill="#000000">FooterComponent</text>
</g>
<!-- FooterComponent&#45;&gt;CoreModule -->
<g id="edge8" class="edge">
<title>FooterComponent&#45;&gt;CoreModule</title>
<path fill="none" stroke="#000000" d="M247,-122.0267C247,-142.7672 247,-174 247,-174 247,-174 392.3286,-174 392.3286,-174"/>
<polygon fill="#000000" stroke="#000000" points="392.3286,-177.5001 402.3286,-174 392.3286,-170.5001 392.3286,-177.5001"/>
</g>
<!-- CommonModule -->
<g id="node10" class="node">
<title>CommonModule</title>
<polygon fill="#8dd3c7" stroke="#000000" points="865.6681,-122 862.6681,-126 841.6681,-126 838.6681,-122 754.3319,-122 754.3319,-86 865.6681,-86 865.6681,-122"/>
<text text-anchor="middle" x="810" y="-99.8" font-family="Times,serif" font-size="14.00" fill="#000000">CommonModule</text>
</g>
<!-- CommonModule&#45;&gt;CoreModule -->
<g id="edge9" class="edge">
<title>CommonModule&#45;&gt;CoreModule</title>
<path fill="none" stroke="#000000" d="M791.3887,-122.0439C791.3887,-134.5633 791.3887,-149 791.3887,-149 791.3887,-149 480.0677,-149 480.0677,-149 480.0677,-149 480.0677,-151.9672 480.0677,-151.9672"/>
<polygon fill="#000000" stroke="#000000" points="476.5678,-151.9671 480.0677,-161.9672 483.5678,-151.9672 476.5678,-151.9671"/>
</g>
<!-- SharedModule -->
<g id="node13" class="node">
<title>SharedModule</title>
<polygon fill="#8dd3c7" stroke="#000000" points="1010.4231,-198 1007.4231,-202 986.4231,-202 983.4231,-198 911.5769,-198 911.5769,-162 1010.4231,-162 1010.4231,-198"/>
<text text-anchor="middle" x="961" y="-175.8" font-family="Times,serif" font-size="14.00" fill="#000000">SharedModule</text>
</g>
<!-- CommonModule&#45;&gt;SharedModule -->
<g id="edge12" class="edge">
<title>CommonModule&#45;&gt;SharedModule</title>
<path fill="none" stroke="#000000" d="M828.6113,-122.0109C828.6113,-144.4852 828.6113,-180 828.6113,-180 828.6113,-180 901.7033,-180 901.7033,-180"/>
<polygon fill="#000000" stroke="#000000" points="901.7034,-183.5001 911.7033,-180 901.7033,-176.5001 901.7034,-183.5001"/>
</g>
<!-- CardComponent -->
<g id="node12" class="node">
<title>CardComponent</title>
<polygon fill="#ffffb3" stroke="#000000" points="1015.0452,-122 906.9548,-122 906.9548,-86 1015.0452,-86 1015.0452,-122"/>
<text text-anchor="middle" x="961" y="-99.8" font-family="Times,serif" font-size="14.00" fill="#000000">CardComponent</text>
</g>
<!-- CardComponent&#45;&gt;SharedModule -->
<g id="edge11" class="edge">
<title>CardComponent&#45;&gt;SharedModule</title>
<path fill="none" stroke="#000000" d="M961,-122.0109C961,-122.0109 961,-151.855 961,-151.855"/>
<polygon fill="#000000" stroke="#000000" points="957.5001,-151.8549 961,-161.855 964.5001,-151.855 957.5001,-151.8549"/>
</g>
<!-- CardComponent  -->
<g id="node14" class="node">
<title>CardComponent </title>
<polygon fill="#fb8072" stroke="#000000" points="1018.0442,-263 905.9558,-263 905.9558,-227 1018.0442,-227 1018.0442,-263"/>
<text text-anchor="middle" x="962" y="-240.8" font-family="Times,serif" font-size="14.00" fill="#000000">CardComponent </text>
</g>
<!-- SharedModule&#45;&gt;CardComponent  -->
<g id="edge13" class="edge">
<title>SharedModule&#45;&gt;CardComponent </title>
<path fill="none" stroke="#000000" stroke-dasharray="5,2" d="M961,-198.1061C961,-198.1061 961,-216.991 961,-216.991"/>
<polygon fill="#000000" stroke="#000000" points="957.5001,-216.9909 961,-226.991 964.5001,-216.991 957.5001,-216.9909"/>
</g>
</g>
</svg>
